# xmcd CD database file
#
# Track frame offsets:
#	150
#	10422
#	21165
#	33855
#	42838
#	51908
#	61426
#	72457
#	81537
#	92634
#	102869
#	113377
#	122205
#	136390
#	149769
#	165548
#	175398
#	187823
#	201923
#	213500
#	226632
#	241162
#	255580
#	266123
#	281136
#	289910
#
# Disc length: 3981 seconds
#
# Revision: 0
# Processed by: cddbd v1.5.2PL0 Copyright (c) Steve Scherf et al.
# Submitted via: CDex 1.70beta2
#
DISCID=820f8b1a
DTITLE=Ray Anthony and his orchestra - Young deas - Moments Together
DYEAR=1957
DGENRE=Jazz
TTITLE0=Moonglow
TTITLE1=Why do I love you ?
TTITLE2=I love you
TTITLE3=Nice work if you can get it
TTITLE4=Lonely night in Paris
TTITLE5=Button up your overcoat
TTITLE6=You turned the tables on me
TTITLE7=Just one of those things
TTITLE8=That old feeling
TTITLE9=Coquette
TTITLE10=wrap your troubles in dream
TTITLE11=Young ideas
TTITLE12=Love is here to stay
TTITLE13=Careless
TTITLE14=Everything I have is yours
TTITLE15=Many faces
TTITLE16=Goodnight waltz
TTITLE17=No other love
TTITLE18=Please Mr. Sun
TTITLE19=The things I love
TTITLE20=With you in mind
TTITLE21=Oh ! what it seemed to me
TTITLE22=In time
TTITLE23=If I ever love again
TTITLE24=Cello-phane
TTITLE25=The lonely trumpet
EXTD=YEAR: 1957
EXTT0=
EXTT1=
EXTT2=
EXTT3=
EXTT4=
EXTT5=
EXTT6=
EXTT7=
EXTT8=
EXTT9=
EXTT10=
EXTT11=
EXTT12=
EXTT13=
EXTT14=
EXTT15=
EXTT16=
EXTT17=
EXTT18=
EXTT19=
EXTT20=
EXTT21=
EXTT22=
EXTT23=
EXTT24=
EXTT25=
PLAYORDER=
